<?xml version="1.0" encoding="UTF-8"?>
<svg id="Layer_1" data-name="Layer 1" xmlns="http://www.w3.org/2000/svg" viewBox="0 0 535.5 176">
  <defs>
    <style>
      .cls-1, .cls-2 {
        fill: #f6d639;
      }

      .cls-3, .cls-4 {
        fill: #fff;
      }

      .cls-5 {
        fill: #20438a;
      }

      .cls-5, .cls-4, .cls-2 {
        fill-rule: evenodd;
      }
    </style>
  </defs>
  <g>
    <path class="cls-5" d="M139,176H494V104H232c10.59-19.74,27.24-33.43,44-47-12.66-21.7-24.01-62.55-58-50-3.12-1.55-4.49-4.85-7-7-12.31,6.01-27.32,.02-42,1-14.22,.95-27.15,7.51-41,9-9.94,1.07-21.4-1.18-32-2C61.93,5.36,33,4,0,2c24.39,7.28,48.88,14.46,72,23C47.62,22.05,21.82,15.18,0,13c21.05,11.62,47.77,22.89,65,35-17.82-6.18-38.01-15.32-55-19,44.32,24.35,81.85,55.48,129,77m358,1c.07,16.96-.09,37.7,0,54,.02,4.56-2.52,13.14,3,15,1.02-21.67,2.93-52.96-1-72h-2v3Zm7-3v72h9V104h-9Zm13,0v72h10V104h-10Z"/>
    <path class="cls-4" d="M191,9c2.3,4.37,4.79,8.54,4,16-7.99-4.03-19.36-4.53-18,8,4.23-.77,2.51-7.49,6-9,8.67,3.66,17.39,7.27,26,11-3,33.45,46.32,37.05,52,9,3.01,2.32,3.65,7.02,5,11-19.2,11.47-31.64,29.7-43,49h-34c19.21-30.89-9.67-65.91-48-64,22.33,2.26,58.37,22.38,41,48-15.39,22.69-56.45,6.94-72-8-10.48-10.07-21.49-26.09-12-38,3.62,.04,2.03,5.31,4,7C114.9,19.35,150.37,1.56,191,9Z"/>
    <path class="cls-4" d="M209,9c3.67,1.99,5.39,5.94,10,7-2.97,4.03-6.76,7.24-8,13-4.76-.91-9.07-2.26-14-3,1.7-7.96,8.02-11.31,12-17Z"/>
    <path class="cls-2" d="M237,10c-3.93,1.71-8.82,2.06-13,1,3.09-2.55,8.76-2.12,13-1Z"/>
    <path class="cls-2" d="M231,18c16.81-3.86,25.94,6.4,26,19,.12,25.51-36.91,27.42-41,5-2.67-14.63,4.66-21.63,15-24Z"/>
    <path class="cls-5" d="M513,104v72h-9V104h9Z"/>
    <path class="cls-5" d="M501.5,104v72h-5V104h5Z"/>
    <path class="cls-5" d="M535.5,104v72h-5V104h5Z"/>
    <path class="cls-5" d="M527,104v72h-10V104h10Z"/>
  </g>
  <path class="cls-4" d="M249.69,43.72c-1.12,3.54-4.89,11.5,.11,4.46,4.36-6.14,3.67-8.98,3.35-11.55-.31-2.57-.87-3.62-1.49-4.09-.61-.47-.52,6.56-1.98,11.18Z"/>
  <g>
    <path class="cls-3" d="M174.9,146.73v-9.94h22.81v20.36c-4.37,2.98-8.23,5-11.58,6.08-3.36,1.08-7.34,1.61-11.94,1.61-5.67,0-10.29-.97-13.86-2.9-3.57-1.93-6.34-4.81-8.31-8.63-1.97-3.82-2.95-8.21-2.95-13.16,0-5.21,1.08-9.75,3.23-13.6,2.15-3.86,5.3-6.78,9.45-8.78,3.24-1.54,7.59-2.31,13.06-2.31s9.23,.48,11.84,1.43c2.62,.96,4.79,2.44,6.52,4.45,1.73,2.01,3.02,4.56,3.89,7.64l-14.24,2.54c-.59-1.8-1.58-3.18-2.98-4.14-1.4-.96-3.19-1.43-5.36-1.43-3.24,0-5.82,1.12-7.74,3.37-1.92,2.25-2.88,5.8-2.88,10.67,0,5.17,.97,8.86,2.92,11.08,1.94,2.21,4.65,3.32,8.13,3.32,1.65,0,3.23-.24,4.72-.72,1.5-.48,3.21-1.29,5.15-2.44v-4.5h-9.87Z"/>
    <path class="cls-3" d="M204.67,164.03v-47.76h24.6c4.56,0,8.05,.39,10.46,1.17,2.41,.78,4.35,2.23,5.83,4.35,1.48,2.12,2.22,4.7,2.22,7.74,0,2.65-.56,4.94-1.7,6.86-1.13,1.92-2.68,3.48-4.66,4.68-1.26,.76-2.99,1.39-5.18,1.89,1.76,.59,3.04,1.17,3.84,1.76,.54,.39,1.33,1.23,2.36,2.51,1.03,1.28,1.72,2.27,2.07,2.97l7.15,13.84h-16.68l-7.89-14.6c-1-1.89-1.89-3.12-2.67-3.68-1.06-.74-2.27-1.11-3.62-1.11h-1.3v19.39h-14.82Zm14.82-28.41h6.22c.67,0,1.98-.22,3.91-.65,.98-.2,1.78-.69,2.4-1.5,.62-.8,.93-1.73,.93-2.77,0-1.54-.49-2.73-1.47-3.55-.98-.83-2.81-1.24-5.51-1.24h-6.48v9.71Z"/>
    <path class="cls-3" d="M288.74,156.15h-16.76l-2.33,7.88h-15.07l17.95-47.76h16.1l17.95,47.76h-15.45l-2.39-7.88Zm-3.06-10.33l-5.27-17.17-5.22,17.17h10.49Z"/>
    <path class="cls-3" d="M310.21,116.27h24.53c5.34,0,9.35,1.27,12.01,3.81,2.66,2.54,3.99,6.16,3.99,10.85s-1.45,8.59-4.35,11.31c-2.9,2.72-7.33,4.07-13.28,4.07h-8.08v17.72h-14.82v-47.76Zm14.82,20.36h3.62c2.85,0,4.84-.49,6-1.48,1.15-.99,1.73-2.25,1.73-3.8s-.5-2.77-1.5-3.81c-1-1.04-2.88-1.56-5.64-1.56h-4.2v10.65Z"/>
    <path class="cls-3" d="M354.53,116.27h14.76v16.71h16.13v-16.71h14.82v47.76h-14.82v-19.32h-16.13v19.32h-14.76v-47.76Z"/>
    <path class="cls-1" d="M410.63,116.27h14.79v47.76h-14.79v-47.76Z"/>
    <path class="cls-1" d="M432.75,116.27h16.26l8.46,14.69,8.23-14.69h16.09l-14.87,23.13,16.27,24.63h-16.58l-9.43-15.35-9.43,15.35h-16.49l16.48-24.89-14.98-22.87Z"/>
  </g>
</svg>